# 3ds Max Wavefront OBJ Exporter v0.97b - (c)2007 guruware
# File Created: 21.07.2020 23:28:10

mtllib wolf-head.mtl

#
# object Object002
#

v  0.0480 -40.7628 47.1180
v  0.0092 -48.0827 31.1428
v  6.6491 -46.3808 32.4090
v  7.3751 -39.7747 44.8001
v  -0.0093 -9.7365 23.4984
v  8.5970 -9.7365 23.4776
v  -0.0158 3.5539 20.8205
v  16.8675 3.5539 20.7795
v  12.9417 23.6815 -0.8249
v  31.1918 11.0294 -13.0688
v  37.9125 48.0827 4.1012
v  14.8589 24.0927 -31.8025
v  28.5237 10.5486 -24.9898
v  27.4642 -0.8343 2.8356
v  -0.0676 24.0927 -0.5314
v  0.7956 24.0927 -30.9646
v  28.8154 -22.7597 -14.8481
v  35.6044 -11.4952 -22.2853
v  -0.0771 -32.3144 -4.4423
v  18.5966 -19.4594 2.4027
v  -7.2903 -39.7747 44.8357
v  -6.6244 -46.3808 32.4412
v  -8.6156 -9.7365 23.5193
v  -16.8991 3.5539 20.8614
v  -13.0782 23.6815 -0.7617
v  -38.0248 48.0827 4.2854
v  -31.3875 11.0294 -12.9170
v  -13.3642 24.0927 -30.8154
v  -28.7773 10.5486 -24.8508
v  -27.5828 -0.8343 2.9691
v  -34.5630 -11.4952 -20.9040
v  -27.8235 -22.7597 -13.9462
v  -18.7174 -19.4594 2.4933
# 33 vertices

vn 0.0023 -0.2630 0.9648
vn -0.0001 -0.9993 -0.0383
vn 0.5775 -0.8133 0.0714
vn 0.6133 -0.1938 0.7657
vn 0.0022 0.4121 0.9111
vn 0.3058 0.3493 0.8857
vn 0.0021 0.4810 0.8767
vn 0.5406 0.2832 0.7922
vn 0.0731 0.8177 0.5710
vn 0.9652 0.2343 0.1163
vn 0.4821 0.7448 0.4614
vn 0.2086 0.9410 -0.2665
vn 0.8380 0.5046 -0.2079
vn 0.9051 0.0032 0.4251
vn 0.0006 0.9270 0.3752
vn 0.0000 1.0000 -0.0000
vn 0.7540 -0.4729 0.4560
vn 0.9657 -0.0603 0.2524
vn 0.0006 -0.9828 -0.1847
vn 0.7719 -0.6164 0.1557
vn -0.6096 -0.1938 0.7687
vn -0.5772 -0.8133 0.0742
vn -0.3015 0.3493 0.8872
vn -0.5368 0.2832 0.7948
vn -0.0631 0.8103 0.5826
vn -0.4907 0.7430 0.4552
vn -0.9660 0.2381 0.1006
vn -0.1747 0.9516 -0.2530
vn -0.8290 0.5214 -0.2023
vn -0.9075 -0.0022 0.4201
vn -0.9657 -0.0946 0.2419
vn -0.7482 -0.4938 0.4431
vn -0.7747 -0.6141 0.1509
# 33 vertex normals

vt 0.1839 0.7376 0.0000
vt 0.1786 0.6873 0.0000
vt 0.1874 0.6879 0.0000
vt 0.1926 0.7274 0.0000
vt 0.4370 0.4844 0.0000
vt 0.4845 0.5116 0.0000
vt 0.4797 0.5314 0.0000
vt 0.4344 0.5091 0.0000
vt 0.2944 0.8375 0.0000
vt 0.2774 0.8377 0.0000
vt 0.2774 0.8123 0.0000
vt 0.2943 0.7877 0.0000
vt 0.7637 0.1736 0.0000
vt 0.7950 0.1606 0.0000
vt 0.7756 0.2738 0.0000
vt 0.7237 0.2733 0.0000
vt 0.7254 0.1906 0.0000
vt 0.9307 0.8659 0.0000
vt 0.9182 0.7885 0.0000
vt 0.9316 0.8058 0.0000
vt 0.4045 0.5596 0.0000
vt 0.4773 0.5724 0.0000
vt 0.1456 0.8669 0.0000
vt 0.1456 0.8171 0.0000
vt 0.1826 0.8283 0.0000
vt 0.1828 0.8667 0.0000
vt 0.6497 0.9562 0.0000
vt 0.6879 0.9574 0.0000
vt 0.6869 0.9957 0.0000
vt 0.6480 0.9976 0.0000
vt 0.1594 0.7635 0.0000
vt 0.1844 0.7537 0.0000
vt 0.8998 0.7394 0.0000
vt 0.8702 0.7849 0.0000
vt 0.8641 0.7427 0.0000
vt 0.9418 0.7414 0.0000
vt 0.4817 0.5902 0.0000
vt 0.4413 0.6545 0.0000
vt 0.4255 0.5954 0.0000
vt 0.8950 0.7991 0.0000
vt 0.8898 0.8679 0.0000
vt 0.9062 0.7361 0.0000
vt 0.1742 0.7382 0.0000
vt 0.1710 0.6974 0.0000
vt 0.3556 0.4916 0.0000
vt 0.3562 0.5170 0.0000
vt 0.3100 0.5199 0.0000
vt 0.3067 0.4984 0.0000
vt 0.2945 0.8873 0.0000
vt 0.2775 0.8631 0.0000
vt 0.6598 0.3717 0.0000
vt 0.6459 0.4704 0.0000
vt 0.6287 0.3553 0.0000
vt 0.6978 0.4727 0.0000
vt 0.6968 0.3885 0.0000
vt 0.5708 0.7410 0.0000
vt 0.5776 0.8019 0.0000
vt 0.5656 0.8243 0.0000
vt 0.3818 0.5791 0.0000
vt 0.3093 0.5614 0.0000
vt 0.1827 0.9051 0.0000
vt 0.1456 0.9167 0.0000
vt 0.6506 0.9145 0.0000
vt 0.6883 0.9190 0.0000
vt 0.1846 0.9797 0.0000
vt 0.1596 0.9702 0.0000
vt 0.5582 0.8813 0.0000
vt 0.5912 0.8622 0.0000
vt 0.5914 0.9060 0.0000
vt 0.3036 0.5770 0.0000
vt 0.3385 0.6572 0.0000
vt 0.3585 0.6056 0.0000
vt 0.5708 0.9346 0.0000
vt 0.5851 0.9957 0.0000
# 74 texture coords

o Object002
g Object002
usemtl default
f 1/1/1 2/2/2 3/3/3 4/4/4 
f 5/5/5 1/6/1 4/7/4 6/8/6 
f 7/9/7 5/10/5 6/11/6 8/12/8 
f 9/13/9 10/14/10 11/15/11 
f 10/16/10 12/17/12 11/15/11 
f 12/18/12 10/19/10 13/20/13 
f 6/8/6 4/7/4 14/21/14 
f 3/22/3 14/21/14 4/7/4 
f 7/23/7 8/24/8 9/25/9 15/26/15 
f 16/27/16 15/28/15 9/29/9 12/30/12 
f 11/15/11 12/17/12 9/13/9 
f 9/25/9 8/24/8 14/31/14 10/32/10 
f 14/33/14 17/34/17 18/35/18 
f 13/20/13 10/19/10 18/36/18 
f 2/37/2 19/38/19 3/22/3 
f 3/22/3 19/38/19 20/39/20 
f 20/40/20 19/41/19 17/34/17 
f 10/19/10 14/42/14 18/36/18 
f 14/33/14 20/40/20 17/34/17 
f 14/21/14 3/22/3 20/39/20 
f 1/1/1 21/43/21 22/44/22 2/2/2 
f 5/45/5 23/46/23 21/47/21 1/48/1 
f 7/9/7 24/49/24 23/50/23 5/10/5 
f 25/51/25 26/52/26 27/53/27 
f 27/54/27 26/52/26 28/55/28 
f 28/56/28 29/57/29 27/58/27 
f 23/46/23 30/59/30 21/47/21 
f 22/60/22 21/47/21 30/59/30 
f 25/61/25 24/62/24 7/23/7 15/26/15 
f 15/28/15 16/27/16 28/63/28 25/64/25 
f 26/52/26 25/51/25 28/55/28 
f 25/61/25 27/65/27 30/66/30 24/62/24 
f 30/67/30 31/68/31 32/69/32 
f 29/57/29 31/68/31 27/58/27 
f 2/70/2 22/60/22 19/71/19 
f 22/60/22 33/72/33 19/71/19 
f 33/73/33 32/69/32 19/74/19 
f 27/58/27 31/68/31 30/67/30 
f 30/67/30 32/69/32 33/73/33 
f 30/59/30 33/72/33 22/60/22 
# 12 polygons - 28 triangles

#
# object eyes
#

v  16.8675 3.5539 20.7795
v  8.5970 -9.7365 23.4776
v  27.4642 -0.8343 2.8356
v  -16.8991 3.5539 20.8614
v  -27.5828 -0.8343 2.9691
v  -8.6156 -9.7365 23.5193
# 6 vertices

vn 0.7603 -0.3639 0.5380
vn -0.7577 -0.3639 0.5417
# 2 vertex normals

vt 0.2943 0.7877 0.0000
vt 0.2774 0.8123 0.0000
vt 0.2859 0.7281 0.0000
vt 0.2945 0.8873 0.0000
vt 0.2864 0.9471 0.0000
vt 0.2775 0.8631 0.0000
# 6 texture coords

o eyes
g eyes
usemtl default
f 34/75/34 35/76/34 36/77/34 
f 37/78/35 38/79/35 39/80/35 
# 0 polygons - 2 triangles

